<svg width="60" height="60" viewBox="0 0 60 60" fill="none" xmlns="http://www.w3.org/2000/svg">
<path d="M17.5918 30.2145C10.6481 30.2145 5 35.8632 5 42.8063C5 49.75 10.6483 55.3981 17.5918 55.3981C24.5352 55.3981 30.1835 49.7498 30.1835 42.8063C30.1835 35.863 24.5348 30.2145 17.5918 30.2145ZM17.5918 53.5991C11.641 53.5991 6.79897 48.7572 6.79897 42.8063C6.79897 36.8547 11.6409 32.0125 17.5918 32.0125C23.5434 32.0125 28.3856 36.8543 28.3856 42.8063C28.3856 48.7571 23.5437 53.5991 17.5918 53.5991ZM52.7627 4.99805H32.7889C31.3352 4.99805 30.1528 6.18049 30.1528 7.635V27.6088C30.1528 29.0625 31.3352 30.245 32.7889 30.245H52.7627C54.2164 30.245 55.3997 29.0625 55.3997 27.6088V7.635C55.3997 6.18049 54.2172 4.99805 52.7627 4.99805ZM53.6005 27.6091C53.6005 28.0716 53.2252 28.4461 52.7627 28.4461H32.7889C32.3265 28.4461 31.952 28.0708 31.952 27.6091V7.6353C31.952 7.17365 32.3273 6.79758 32.7889 6.79758H52.7627C53.2244 6.79758 53.6005 7.17285 53.6005 7.6353V27.6091ZM49.072 34.7119V41.0083C49.072 42.4962 47.8613 43.7067 46.3736 43.7067L35.9542 43.7063L37.117 44.8691C37.469 45.2203 37.469 45.7888 37.117 46.1407C36.9414 46.3163 36.7112 46.4035 36.4806 46.4035C36.2503 46.4035 36.0197 46.3163 35.8441 46.1407L33.1458 43.4424C32.9766 43.274 32.8822 43.0446 32.8822 42.8059C32.8822 42.5665 32.9766 42.3386 33.1458 42.1695L35.8441 39.4711C36.1953 39.1192 36.7638 39.1192 37.1158 39.4711C37.4677 39.8223 37.4677 40.392 37.1158 40.7428L35.953 41.9056H46.3734C46.87 41.9056 47.2726 41.5014 47.2726 41.0064V34.71C47.2726 34.2122 47.676 33.81 48.1726 33.81C48.6692 33.8108 49.072 34.2141 49.072 34.7119ZM11.2967 20.3202V14.0238C11.2967 12.5359 12.5073 11.3254 13.995 11.3254H23.5169L22.3541 10.1626C22.0029 9.81144 22.0029 9.24292 22.3541 8.89098C22.7061 8.53902 23.2738 8.53902 23.6257 8.89098L26.3249 11.5893C26.4941 11.7585 26.5877 11.9863 26.5877 12.2258C26.5877 12.4652 26.4933 12.6938 26.3249 12.8622L23.6257 15.5614C23.4502 15.737 23.2199 15.8241 22.9893 15.8241C22.7591 15.8241 22.5293 15.737 22.3529 15.5614C22.0017 15.2094 22.0017 14.6397 22.3529 14.2898L23.5157 13.127H13.9938C13.498 13.127 13.0938 13.5291 13.0938 14.0261V20.3225C13.0938 20.8184 12.6904 21.2225 12.1946 21.2225C11.6992 21.2201 11.2967 20.8168 11.2967 20.3202Z" fill="#262626"/>
</svg>
