<svg width="150" height="176" viewBox="0 0 150 176" fill="none" xmlns="http://www.w3.org/2000/svg">
<path d="M3.23837 175.364C2.63252 175.364 2.22861 175.364 1.82471 175.364L2.43056 171.366C14.7497 172.965 39.9937 144.582 60.189 121.595C83.2116 95.6102 97.7522 79.8194 106.234 82.0181L141.374 81.8182C143.595 81.8182 144.807 80.419 145.211 79.0198C145.615 77.6206 145.413 75.8217 143.797 74.4225L108.658 49.2372L111.081 46.0391L146.019 71.2244C148.846 73.2232 150.058 76.8211 149.048 80.2191C148.038 83.6172 144.807 85.8159 141.374 85.8159L105.628 86.0157H105.224C98.9639 84.0169 79.9804 105.404 63.2183 124.393C40.8016 149.379 17.779 175.364 3.23837 175.364Z" fill="#858585"/>
<path d="M109.464 66.4238C108.455 66.4238 107.445 65.6243 107.445 64.425C107.041 52.432 107.243 11.8556 107.243 11.4559C107.243 10.4564 108.253 9.45703 109.262 9.45703C110.474 9.45703 111.282 10.4564 111.282 11.4559C111.282 11.8556 110.878 52.2321 111.484 64.2251C111.686 65.4244 110.676 66.4238 109.464 66.4238C109.666 66.4238 109.464 66.4238 109.464 66.4238Z" fill="#858585"/>
<path d="M-47.6514 54.0343H-51.6904C-51.6904 0.265614 -39.9772 0.265625 72.5104 0.265625L120.373 0.265625C122.393 0.265625 124.21 1.46493 124.816 3.26388C125.624 5.06283 125.018 7.26154 123.604 8.46084L111.285 20.0541L108.458 17.2557L120.777 5.66247C121.181 5.2627 120.979 4.86294 120.979 4.66305C120.979 4.46317 120.777 4.0634 120.171 4.0634L72.7124 4.0634C-40.785 4.46316 -47.6514 4.46317 -47.6514 54.0343Z" fill="#858585"/>
<path d="M93.7127 24.6503C93.7127 34.6445 84.8268 42.8397 84.8268 42.8397C84.8268 42.8397 75.9409 34.6445 75.9409 24.6503C75.9409 14.6562 84.8268 6.46094 84.8268 6.46094C84.8268 6.46094 93.7127 14.6562 93.7127 24.6503Z" fill="white"/>
<path d="M84.8268 45.6383L83.4132 44.439C83.0092 44.0392 73.9214 35.6441 73.9214 24.8504C73.9214 14.0567 83.0092 5.66158 83.4132 5.26181L84.8268 4.0625L86.2405 5.26181C86.6444 5.66158 95.7323 14.0567 95.7323 24.8504C95.7323 35.6441 86.6444 44.0392 86.2405 44.439L84.8268 45.6383ZM84.8268 9.45936C82.4034 12.0578 77.9604 18.0543 77.9604 24.6505C77.9604 31.4465 82.4034 37.2432 84.8268 39.8416C87.2502 37.2432 91.6932 31.2467 91.6932 24.6505C91.6932 18.0543 87.0483 12.0578 84.8268 9.45936Z" fill="#858585"/>
<path d="M95.3348 70.8261C95.3348 80.8203 86.4489 89.0155 86.4489 89.0155C86.4489 89.0155 77.563 80.8203 77.563 70.8261C77.563 60.8319 86.4489 52.6367 86.4489 52.6367C86.4489 52.6367 95.3348 60.8319 95.3348 70.8261Z" fill="white"/>
<path d="M86.4489 91.0132C86.045 91.0132 85.4391 90.8133 85.0352 90.4135C84.6313 90.0137 75.5435 81.6187 75.5435 70.825C75.5435 60.0312 84.6313 51.6361 85.0352 51.2364C85.8431 50.4368 87.0548 50.4368 87.8626 51.2364C88.2665 51.6361 97.3544 60.0312 97.3544 70.825C97.3544 81.6187 88.2665 90.0137 87.8626 90.4135C87.4587 90.8133 86.8528 91.0132 86.4489 91.0132ZM86.4489 55.6338C84.0255 58.2323 79.5825 64.2288 79.5825 70.825C79.5825 77.4211 84.0255 83.4176 86.4489 86.0161C88.8723 83.4176 93.3153 77.4211 93.3153 70.825C93.3153 64.2288 88.6704 58.2323 86.4489 55.6338Z" fill="#858585"/>
<path d="M93.7192 26.4469L77.563 26.4469C76.3513 26.4469 75.5435 25.6473 75.5435 24.448C75.5435 23.2488 76.3513 22.4492 77.563 22.4492L93.7192 22.4492C94.9309 22.4492 95.7387 23.2488 95.7387 24.448C95.7387 25.6473 94.729 26.4469 93.7192 26.4469Z" fill="#858585"/>
<path d="M95.3348 72.818H77.563C76.3513 72.818 75.5435 72.0184 75.5435 70.8191C75.5435 69.6198 76.3513 68.8203 77.563 68.8203H95.3348C96.5465 68.8203 97.3544 69.6198 97.3544 70.8191C97.3544 72.0184 96.3446 72.818 95.3348 72.818Z" fill="#858585"/>
<path d="M72.9176 56.0327C42.6247 56.0327 41.8169 55.2332 41.8169 27.0496C41.8169 25.8503 42.6247 25.0508 43.8364 25.0508C45.0481 25.0508 45.8559 25.8503 45.8559 27.0496C45.8559 39.6423 45.8559 46.4383 48.8852 49.2367C51.9145 52.0351 59.3868 52.0351 73.1196 52.0351C74.3313 52.0351 75.1391 52.8346 75.1391 54.0339C75.1391 55.2332 74.1293 56.0327 72.9176 56.0327Z" fill="#858585"/>
<path d="M43.8364 79.8151C42.6247 79.8151 41.8169 79.0155 41.8169 77.8162C41.8169 53.6303 44.8462 52.0312 65.2434 52.0312C66.4551 52.0312 67.2629 52.8308 67.2629 54.0301C67.2629 55.2294 66.4551 56.0289 65.2434 56.0289C46.0579 56.0289 45.8559 56.4287 45.8559 77.8162C45.8559 78.8156 44.8462 79.8151 43.8364 79.8151Z" fill="#858585"/>
</svg>
