<svg width="142" height="113" viewBox="0 0 142 113" fill="none" xmlns="http://www.w3.org/2000/svg">
<path d="M-0.000335693 -4.74981C-0.000335693 -5.23789 -0.000335693 -5.56328 -0.000335693 -5.88867L3.24168 -5.40059C1.94488 4.5238 24.9632 24.8607 43.6048 41.1301C64.6779 59.6773 77.4839 71.3914 75.7008 78.2246L75.8628 106.533C75.8628 108.323 76.9976 109.299 78.1323 109.625C79.267 109.95 80.7259 109.787 81.8606 108.486L102.285 80.1769L104.879 82.1292L84.4542 110.275C82.8332 112.553 79.9154 113.529 77.1597 112.716C74.4039 111.902 72.6208 109.299 72.6208 106.533L72.4587 77.7365V77.4111C74.0797 72.3676 56.735 57.0742 41.3354 43.5706C21.0728 25.5114 -0.000335693 6.96422 -0.000335693 -4.74981Z" fill="#858585"/>
<path d="M88.3481 80.8284C88.3481 80.0149 88.9965 79.2014 89.9691 79.2014C99.6952 78.876 132.602 79.0387 132.926 79.0387C133.736 79.0387 134.547 79.8522 134.547 80.6657C134.547 81.6418 133.736 82.2926 132.926 82.2926C132.602 82.2926 99.8573 81.9672 90.1312 82.4553C89.1586 82.618 88.3481 81.8045 88.3481 80.8284C88.3481 80.9911 88.3481 80.8284 88.3481 80.8284Z" fill="#858585"/>
<path d="M98.3949 -45.7461V-49C142 -49 142 -39.5637 142 51.0573V89.616C142 91.243 141.027 92.7072 139.568 93.1953C138.11 93.8461 136.326 93.358 135.354 92.2191L125.952 82.2947L128.221 80.017L137.623 89.9414C137.947 90.2668 138.272 90.1041 138.434 90.1041C138.596 90.1041 138.92 89.9414 138.92 89.4533V51.22C138.596 -40.2145 138.596 -45.7461 98.3949 -45.7461Z" fill="#858585"/>
<path d="M122.225 68.1374C114.12 68.1374 107.474 60.9789 107.474 60.9789C107.474 60.9789 114.12 53.8203 122.225 53.8203C130.33 53.8203 136.977 60.9789 136.977 60.9789C136.977 60.9789 130.33 68.1374 122.225 68.1374Z" fill="white"/>
<path d="M105.205 60.9789L106.177 59.84C106.502 59.5146 113.31 52.1934 122.063 52.1934C130.817 52.1934 137.625 59.5146 137.949 59.84L138.922 60.9789L137.949 62.1177C137.625 62.4431 130.817 69.7644 122.063 69.7644C113.31 69.7644 106.502 62.4431 106.177 62.1177L105.205 60.9789ZM134.545 60.9789C132.438 59.0265 127.575 55.4473 122.225 55.4473C116.714 55.4473 112.013 59.0265 109.906 60.9789C112.013 62.9312 116.876 66.5105 122.225 66.5105C127.575 66.5105 132.438 62.7685 134.545 60.9789Z" fill="#858585"/>
<path d="M84.7801 69.4441C76.675 69.4441 70.0289 62.2855 70.0289 62.2855C70.0289 62.2855 76.675 55.127 84.7801 55.127C92.8851 55.127 99.5312 62.2855 99.5312 62.2855C99.5312 62.2855 92.8851 69.4441 84.7801 69.4441Z" fill="white"/>
<path d="M68.408 62.2855C68.408 61.9601 68.5701 61.4721 68.8943 61.1467C69.2185 60.8213 76.0267 53.5 84.7801 53.5C93.5336 53.5 100.342 60.8213 100.666 61.1467C101.314 61.7974 101.314 62.7736 100.666 63.4244C100.342 63.7498 93.5336 71.0711 84.7801 71.0711C76.0267 71.0711 69.2185 63.7498 68.8943 63.4244C68.5701 63.099 68.408 62.6109 68.408 62.2855ZM97.0998 62.2855C94.9925 60.3332 90.1295 56.7539 84.7801 56.7539C79.4308 56.7539 74.5678 60.3332 72.4605 62.2855C74.5678 64.2379 79.4308 67.8172 84.7801 67.8172C90.1295 67.8172 94.9925 64.0752 97.0998 62.2855Z" fill="#858585"/>
<path d="M120.766 68.1425V55.1269C120.766 54.1508 121.414 53.5 122.387 53.5C123.359 53.5 124.008 54.1508 124.008 55.1269V68.1425C124.008 69.1187 123.359 69.7695 122.387 69.7695C121.414 69.7695 120.766 68.956 120.766 68.1425Z" fill="#858585"/>
<path d="M83.1603 69.4441V55.1269C83.1603 54.1508 83.8087 53.5 84.7813 53.5C85.7539 53.5 86.4023 54.1508 86.4023 55.1269V69.4441C86.4023 70.4203 85.7539 71.0711 84.7813 71.0711C83.8087 71.0711 83.1603 70.2576 83.1603 69.4441Z" fill="#858585"/>
<path d="M96.7728 51.3851C96.7728 26.9809 97.4212 26.3301 120.277 26.3301C121.25 26.3301 121.898 26.9809 121.898 27.957C121.898 28.9332 121.25 29.584 120.277 29.584C110.065 29.584 104.554 29.584 102.284 32.0244C100.015 34.4648 100.015 40.4845 100.015 51.5478C100.015 52.524 99.3664 53.1747 98.3938 53.1747C97.4212 53.1747 96.7728 52.3613 96.7728 51.3851Z" fill="#858585"/>
<path d="M77.4875 27.957C77.4875 26.9809 78.1359 26.3301 79.1085 26.3301C98.7227 26.3301 100.02 28.7705 100.02 45.2027C100.02 46.1789 99.3711 46.8296 98.3985 46.8296C97.4259 46.8296 96.7775 46.1789 96.7775 45.2027C96.7775 29.7467 96.4533 29.584 79.1085 29.584C78.298 29.584 77.4875 28.7705 77.4875 27.957Z" fill="#858585"/>
</svg>
