<svg width="223" height="222" viewBox="0 0 223 222" fill="none" xmlns="http://www.w3.org/2000/svg">
<path d="M51.914 17.4899C51.7898 18.028 52.1253 18.565 52.6635 18.6892L61.4328 20.7138C61.9709 20.838 62.5079 20.5025 62.6321 19.9644C62.7564 19.4262 62.4208 18.8893 61.8827 18.765L54.0877 16.9654L55.8873 9.17047C56.0116 8.63234 55.6761 8.09539 55.1379 7.97115C54.5998 7.84691 54.0628 8.18244 53.9386 8.72057L51.914 17.4899ZM122.177 1.5513L122.077 2.54629L122.177 1.5513ZM83.7714 217.531L83.5222 218.499L83.7714 217.531ZM24.3024 178.471L25.0922 177.858L24.3024 178.471ZM2.17969 111.183L2.17801 110.183L0.178016 110.186L0.179689 111.186L2.17969 111.183ZM53.4183 18.5629C73.8984 5.7655 98.0487 0.131804 122.077 2.54629L122.277 0.556312C97.8077 -1.90248 73.2144 3.83459 52.3585 16.8668L53.4183 18.5629ZM122.077 2.54629C146.106 4.96078 168.653 15.2867 186.177 31.903L187.553 30.4516C169.707 13.5305 146.747 3.0151 122.277 0.556312L122.077 2.54629ZM186.177 31.903C203.702 48.5192 215.212 70.4848 218.901 94.3511L220.877 94.0456C217.121 69.7414 205.399 47.3728 187.553 30.4516L186.177 31.903ZM218.901 94.3511C222.589 118.217 218.248 142.633 206.557 163.765L208.307 164.733C220.212 143.213 224.633 118.35 220.877 94.0456L218.901 94.3511ZM206.557 163.765C194.867 184.896 176.49 201.547 154.311 211.103L155.103 212.94C177.688 203.209 196.402 186.252 208.307 164.733L206.557 163.765ZM154.311 211.103C132.133 220.659 107.409 222.58 84.0206 216.562L83.5222 218.499C107.339 224.627 132.517 222.672 155.103 212.94L154.311 211.103ZM84.0206 216.562C60.6325 210.545 39.905 196.931 25.0922 177.858L23.5126 179.085C38.5972 198.508 59.705 212.372 83.5222 218.499L84.0206 216.562ZM25.0922 177.858C10.2793 158.785 2.22009 135.332 2.17969 111.183L0.179689 111.186C0.220833 135.779 8.42797 159.661 23.5126 179.085L25.0922 177.858Z" fill="black"/>
</svg>
