<svg width="90" height="116" viewBox="0 0 90 116" fill="none" xmlns="http://www.w3.org/2000/svg">
<g clip-path="url(#clip0_391_7277)">
<path d="M23.7021 45.4934H0.496094V6.70604C0.496094 3.27867 3.27546 0.496094 6.70384 0.496094H23.707V45.4934H23.7021Z" fill="#D9E7FF" stroke="black" stroke-width="2" stroke-miterlimit="10"/>
<path d="M81.236 0.496094H10.1367C14.7046 0.496094 18.4055 4.20123 18.4055 8.77437V45.4934H89.5048V8.77437C89.5048 4.20123 85.8039 0.496094 81.236 0.496094Z" fill="#D9E7FF" stroke="black" stroke-width="2" stroke-miterlimit="10"/>
<path d="M89.5027 43.5742C89.5027 64.198 89.5027 84.8168 89.5027 105.441H68.0703V43.5742" fill="#D9E7FF"/>
<path d="M89.5027 43.5742C89.5027 64.198 89.5027 84.8168 89.5027 105.441H68.0703V43.5742" stroke="black" stroke-width="2" stroke-miterlimit="10"/>
<path d="M40.1813 39.3535C40.1813 59.1142 40.1813 78.87 40.1813 98.6307H18.7539V39.3535" fill="#D9E7FF"/>
<path d="M40.1813 39.3535C40.1813 59.1142 40.1813 78.87 40.1813 98.6307H18.7539V39.3535" stroke="black" stroke-width="2" stroke-miterlimit="10"/>
<path d="M74.2059 37.2256L42.9689 74.0736H10.1367L42.4735 36.2188" fill="#D9E7FF"/>
<path d="M74.2059 37.2256L42.9689 74.0736H10.1367L42.4735 36.2188" stroke="black" stroke-width="2" stroke-miterlimit="10"/>
<path d="M26.257 40.623C17.5027 40.623 10.3438 47.7903 10.3438 56.5546V74.1528H42.1702V56.5546C42.1702 47.7903 35.0113 40.623 26.257 40.623Z" fill="#D9E7FF" stroke="black" stroke-width="2" stroke-miterlimit="10"/>
<path d="M32.3779 63.7305C32.3779 67.7382 29.1031 71.0118 25.105 71.0118C21.1019 71.0118 17.832 67.7332 17.832 63.7305" fill="#D9E7FF"/>
<path d="M32.3779 63.7305C32.3779 67.7382 29.1031 71.0118 25.105 71.0118C21.1019 71.0118 17.832 67.7332 17.832 63.7305" stroke="black" stroke-width="2" stroke-miterlimit="10"/>
<path d="M19.7127 58.7108C22.583 58.7108 24.9098 56.3813 24.9098 53.5077C24.9098 50.6342 22.583 48.3047 19.7127 48.3047C16.8424 48.3047 14.5156 50.6342 14.5156 53.5077C14.5156 56.3813 16.8424 58.7108 19.7127 58.7108Z" fill="white" stroke="black" stroke-width="2" stroke-miterlimit="10"/>
<path d="M17.493 57.3875C18.7188 57.3875 19.7125 56.3927 19.7125 55.1655C19.7125 53.9382 18.7188 52.9434 17.493 52.9434C16.2672 52.9434 15.2734 53.9382 15.2734 55.1655C15.2734 56.3927 16.2672 57.3875 17.493 57.3875Z" fill="black"/>
<path d="M30.2947 58.7108C33.165 58.7108 35.4918 56.3813 35.4918 53.5077C35.4918 50.6342 33.165 48.3047 30.2947 48.3047C27.4245 48.3047 25.0977 50.6342 25.0977 53.5077C25.0977 56.3813 27.4245 58.7108 30.2947 58.7108Z" fill="white" stroke="black" stroke-width="2" stroke-miterlimit="10"/>
<path d="M28.075 57.3875C29.3008 57.3875 30.2945 56.3927 30.2945 55.1655C30.2945 53.9382 29.3008 52.9434 28.075 52.9434C26.8492 52.9434 25.8555 53.9382 25.8555 55.1655C25.8555 56.3927 26.8492 57.3875 28.075 57.3875Z" fill="black"/>
<path d="M68.0703 98.6309V107.232C68.0703 111.805 71.7712 115.51 76.3391 115.51H85.6433C81.0754 115.51 77.3745 111.805 77.3745 107.232V98.6309" fill="#D9E7FF"/>
<path d="M68.0703 98.6309V107.232C68.0703 111.805 71.7712 115.51 76.3391 115.51H85.6433C81.0754 115.51 77.3745 111.805 77.3745 107.232V98.6309" stroke="black" stroke-width="2" stroke-miterlimit="10"/>
<path d="M40.1784 93.1152V101.716C40.1784 106.289 36.4775 109.994 31.9097 109.994H22.6055C27.1733 109.994 30.8742 106.289 30.8742 101.716V93.1152" fill="#D9E7FF"/>
<path d="M40.1784 93.1152V101.716C40.1784 106.289 36.4775 109.994 31.9097 109.994H22.6055C27.1733 109.994 30.8742 106.289 30.8742 101.716V93.1152" stroke="black" stroke-width="2" stroke-miterlimit="10"/>
<path d="M83.0195 98.6309V105.441" stroke="black" stroke-width="2" stroke-miterlimit="10"/>
<path d="M24.5078 84.9453V98.63" stroke="black" stroke-width="2" stroke-miterlimit="10"/>
</g>
<defs>
<clipPath id="clip0_391_7277">
<rect width="90" height="116" fill="white"/>
</clipPath>
</defs>
</svg>
