<svg width="60" height="60" viewBox="0 0 60 60" fill="none" xmlns="http://www.w3.org/2000/svg">
<path d="M46.362 26.4852V20.1216C46.362 19.6197 46.7688 19.2126 47.271 19.2126H59.0893C59.5912 19.2126 59.9983 19.6198 59.9983 20.1216C59.9983 20.6239 59.5911 21.0306 59.0893 21.0306H48.1804V27.3942C48.1804 27.8965 47.7733 28.3036 47.2714 28.3036H36.3626V34.6672C36.3626 35.1691 35.9554 35.5762 35.4536 35.5762H24.5447V41.9398C24.5447 42.4417 24.1376 42.8488 23.6357 42.8488H12.7269V49.2124C12.7269 49.7146 12.32 50.1214 11.8179 50.1214H0.909C0.4071 50.1214 0 49.7146 0 49.2124C0 48.7102 0.407143 48.3034 0.909 48.3034H10.9093V41.9398C10.9093 41.4375 11.3161 41.0308 11.8183 41.0308H22.7271V34.6672C22.7271 34.1649 23.134 33.7578 23.6361 33.7578H34.545V27.3942C34.545 26.8923 34.9518 26.4852 35.454 26.4852H46.362ZM22.8454 14.4578L12.1491 20.6332C11.7142 20.884 11.1584 20.735 10.9073 20.3004C10.6562 19.8655 10.8052 19.3097 11.2401 19.0586L21.9364 12.8831L17.8472 11.7876C17.3621 11.6574 17.0745 11.1592 17.2044 10.674C17.3343 10.1892 17.8328 9.90127 18.3176 10.0312L24.5269 11.6949C25.012 11.8248 25.2996 12.3233 25.1697 12.8085L23.506 19.0177C23.3761 19.5025 22.8776 19.7905 22.3928 19.6602C21.9076 19.5303 21.62 19.0321 21.7499 18.547L22.8454 14.4578Z" fill="#262626"/>
</svg>
