<svg width="60" height="60" viewBox="0 0 60 60" fill="none" xmlns="http://www.w3.org/2000/svg">
<path d="M56.909 15.9518L30.5477 8.0318C30.3766 7.9868 30.1966 7.9868 30.0254 8.0318L3.66415 15.9518C3.27201 16.0583 3 16.4143 3 16.8205C3 17.2267 3.27201 17.5822 3.66415 17.6887L10.936 19.4887V29.038C10.9381 29.5631 11.1164 30.0722 11.4431 30.4836C11.7698 30.8951 12.225 31.1847 12.736 31.3061L30.0345 35.0323H30.4122L40.1864 32.9349V41.8899H38.9534C38.4564 41.8899 38.0534 42.2929 38.0534 42.7899V51.4568C38.0534 51.6955 38.1482 51.9245 38.3169 52.0933C38.4857 52.262 38.7147 52.3568 38.9534 52.3568H43.2826C43.5213 52.3568 43.7499 52.262 43.9191 52.0933C44.0878 51.9245 44.1826 51.6955 44.1826 51.4568V42.7899C44.1826 42.5512 44.0878 42.3222 43.9191 42.1535C43.7499 41.9847 43.5213 41.8899 43.2826 41.8899H41.9864V32.5387L47.7376 31.3057C48.2482 31.1843 48.7039 30.895 49.0305 30.4836C49.3567 30.0722 49.5355 29.5631 49.5375 29.038V19.5161L56.8094 17.7161C57.2012 17.6092 57.4732 17.2536 57.4732 16.8474C57.4732 16.4412 57.2012 16.0856 56.8094 15.9787L56.909 15.9518ZM42.3835 50.5838H39.8542V43.69H42.3831L42.3835 50.5838ZM30.2875 33.2318L13.1875 29.5418C12.9504 29.4908 12.7813 29.2806 12.7825 29.038V19.9118L30.1078 23.4487H30.4678L40.1878 21.4599V31.0899L30.2875 33.2318ZM47.801 29.038C47.8022 29.2807 47.6334 29.4908 47.396 29.5418L41.996 30.703V21.0911L47.7741 19.9123L47.801 29.038ZM48.521 17.9315L41.6272 19.3357C41.5758 19.2911 41.5183 19.2549 41.456 19.2276L30.62 14.8895C30.16 14.7043 29.6373 14.9253 29.45 15.3845C29.3584 15.6075 29.3604 15.8578 29.4552 16.0796C29.5501 16.301 29.7297 16.4754 29.9539 16.5633L38.4769 19.9652L30.2869 21.6483L12.0617 17.9313L7.30976 16.7344L30.287 9.8406L53.2643 16.7344L48.521 17.9315Z" fill="#262626"/>
</svg>
