<svg width="60" height="60" viewBox="0 0 60 60" fill="none" xmlns="http://www.w3.org/2000/svg">
<path d="M22.5578 21.5476L20.0761 21.4227V21.423C18.0749 21.3226 16.1243 22.0722 14.7049 23.4868L10.9897 27.202C10.6716 27.5194 10.5334 27.9751 10.6211 28.4158C10.7088 28.8564 11.0112 29.2243 11.4267 29.3958L16.9897 31.6997C16.5387 32.9844 16.1667 34.2959 15.8761 35.6262C15.8064 35.9456 15.9042 36.2784 16.1352 36.5095L23.1434 43.5177V43.5173C23.3744 43.7487 23.7073 43.8461 24.0267 43.7765C25.357 43.4859 26.6681 43.1139 27.9532 42.6629L30.2618 48.231C30.4332 48.6465 30.8012 48.9488 31.2419 49.0365C31.6825 49.1243 32.1382 48.986 32.4556 48.6679L36.1708 44.9527C37.5864 43.534 38.3364 41.5831 38.2346 39.5815L38.1097 37.0998C46.2506 30.7014 51.1374 21.1878 52.6443 8.80896C52.7039 8.31677 52.5341 7.82462 52.1836 7.47439C51.8334 7.12384 51.3412 6.95408 50.849 7.01368C38.4702 8.52071 28.9567 13.4121 22.5582 21.5482L22.5578 21.5476ZM50.6901 8.96728C49.1687 20.8233 44.4068 29.8807 36.549 35.8858C36.2985 36.078 36.1586 36.3814 36.1746 36.6971L36.3283 39.678V39.6777C36.4016 41.1378 35.8542 42.5605 34.8209 43.5947L31.7155 46.7002L29.3731 41.0795C29.1736 40.6001 28.6295 40.366 28.1443 40.5515C26.8335 41.0514 25.4915 41.4652 24.1268 41.7897L17.8867 35.5496V35.5499C18.2115 34.1848 18.625 32.8429 19.1252 31.532C19.3104 31.0472 19.0763 30.5028 18.5972 30.3032L12.9812 27.9705L16.0866 24.8651C17.1212 23.8325 18.5435 23.285 20.0033 23.3577L22.9842 23.5114C23.2966 23.5131 23.5902 23.3628 23.7714 23.1083C29.7761 15.2507 38.8339 10.4886 50.6899 8.96715L50.6901 8.96728ZM38.5512 25.8684C40.0318 25.8698 41.429 25.182 42.3314 24.0078C43.2334 22.8336 43.5381 21.3064 43.1551 19.8758C42.7724 18.4454 41.7458 17.2745 40.3778 16.7077C39.01 16.1409 37.4561 16.243 36.1737 16.9836C34.8914 17.7242 34.0268 19.0193 33.8343 20.4875C33.6418 21.9557 34.1434 23.4303 35.191 24.4762C36.082 25.3678 37.2907 25.8687 38.5513 25.8684L38.5512 25.8684ZM36.5494 19.0956C37.1748 18.4719 38.0547 18.1745 38.9303 18.291C39.8058 18.4072 40.5776 18.9242 41.0182 19.6896C41.4591 20.455 41.5187 21.3817 41.1802 22.1974C40.8414 23.0133 40.1427 23.625 39.2892 23.853C38.4361 24.0811 37.5254 23.8993 36.8249 23.3612C36.1245 22.8231 35.714 21.9898 35.7143 21.1065C35.713 20.3515 36.0137 19.6276 36.5494 19.0955L36.5494 19.0956ZM8.32024 52.657C16.0004 52.5228 19.7442 48.4618 21.0017 46.7194C21.2926 46.3136 21.3003 45.7695 21.0208 45.3553C20.7415 44.9411 20.2343 44.7446 19.7488 44.8618C18.7423 45.1236 17.6956 45.1953 16.6624 45.0731C16.13 45.0084 15.6345 44.767 15.2551 44.3877C14.8757 44.0083 14.6343 43.5128 14.5697 42.9804C14.4545 41.9512 14.5309 40.9096 14.7954 39.9084C14.9183 39.4212 14.7237 38.9093 14.3082 38.6271C13.8927 38.3445 13.3453 38.3522 12.9378 38.6458C11.2001 39.9084 7.13436 43.6474 7.00013 51.3135C6.99511 51.6674 7.13172 52.0086 7.37949 52.2611C7.62759 52.5136 7.9661 52.6562 8.32003 52.6575L8.32024 52.657ZM12.6401 41.4585H12.6404C12.6089 42.0431 12.628 42.6293 12.698 43.2106C12.8142 44.1695 13.2488 45.0618 13.9319 45.7448C14.6149 46.4275 15.5072 46.8621 16.4661 46.9786C17.0473 47.048 17.6333 47.0674 18.2179 47.0362C16.586 48.5962 13.6673 50.4778 8.95905 50.713C9.18941 46.009 11.0664 43.0858 12.6214 41.4541L12.6401 41.4585Z" fill="#262626"/>
</svg>
