<svg width="160" height="88" viewBox="0 0 160 88" fill="none" xmlns="http://www.w3.org/2000/svg">
<path d="M84.0068 46.4755C91.2965 48.1633 98.5214 51.0518 104.706 55.29C108.217 57.6943 111.909 61.344 112.472 65.788C113.474 73.7434 105.032 79.4029 98.5646 81.7358C90.124 84.7792 80.0229 84.19 73.2795 77.7902C66.4368 71.3026 65.8775 60.4807 68.866 51.7094C69.6908 49.2854 70.7748 46.9983 72.0617 44.8246C76.0628 45.0228 80.0553 45.5624 84.0068 46.4755ZM160.864 0.0205917C135.184 3.26234 107.955 9.0358 86.3107 24.0334C79.9538 28.441 74.0806 33.8907 69.7556 40.2922C65.152 40.2055 60.5182 40.5359 55.9017 41.2762C38.377 44.0904 21.6859 52.9031 8.01551 64.2797C10.9176 57.207 13.8175 50.1336 16.7195 43.0609C17.8164 40.3807 13.472 39.2258 12.3902 41.868C8.30054 51.835 4.21086 61.8087 0.121198 71.7772C-0.41862 73.0942 0.941728 74.7086 2.28695 74.6175C14.2558 73.8218 26.2247 73.0208 38.1957 72.2242C41.0653 72.0319 41.0869 67.545 38.1957 67.7371C28.2673 68.3999 18.3368 69.0625 8.40849 69.7184C18.4837 60.528 31.1197 53.3711 43.7882 48.9863C51.3327 46.3743 59.1967 44.9108 67.091 44.7513C64.9577 48.8285 63.4613 53.2353 62.8416 57.96C61.4013 68.9563 66.1841 80.4063 76.4472 85.3881C84.7236 89.4062 94.5289 88.439 102.756 84.8569C109.825 81.7814 116.558 75.5931 117.018 67.4716C117.629 56.6674 105.662 49.8192 97.269 46.193C90.0938 43.0872 82.5838 41.2399 74.9486 40.5637C80.1395 33.8089 87.2738 28.3955 94.4426 24.1549C114.381 12.3701 138.142 7.37412 160.864 4.50769C163.695 4.15179 163.729 -0.340065 160.864 0.0205917Z" fill="#015AF8"/>
</svg>
