<svg width="222" height="206" viewBox="0 0 222 206" fill="none" xmlns="http://www.w3.org/2000/svg">
<path d="M211.684 54.1414C192.766 16.3077 151.088 -4.11586 108.039 1.70262C63.3415 7.74062 27.9312 46.8217 17.0339 87.3947C13.1794 80.8377 9.80678 68.1921 9.58152 60.5011C8.48927 57.1453 6.28772 58.2613 6.91593 61.6351C9.25197 74.1832 11.2411 83.4349 17.0339 94.8884C17.76 96.3287 19.1372 97.1422 20.2168 95.8251C29.0212 85.0782 39.3124 77.9415 50.5538 69.5039C53.4139 67.36 51.1862 65.5978 48.3514 67.7238C38.5684 75.0698 28.1152 81.1619 20.2168 90.2189C29.2327 44.3627 70.8783 3.6588 121.586 3.09048C177.613 2.46504 221.193 47.4868 220.357 100.509C219.568 150.611 176.95 196.178 124.477 203.079C70.5019 210.175 5.00762 154.378 2.03389 103.352C1.96129 102.159 0.0958518 102.153 0.0453427 103.352C-1.71616 142.693 48.2084 189.775 86.6395 201.514C128.013 214.152 169.601 197.165 196.266 166.078C223.172 134.71 230.114 90.9948 211.684 54.1414Z" fill="#262626"/>
</svg>
